PathFileType  4	(X/Y/Z) C:\Users\antoi\Documents\MyRepositories\mobilecap\ResultsAnalysis
DataRate	CameraRate	NumFrames	NumMarkers	Units	OrigDataRate	OrigDataStartFrame	OrigNumFrames
100.0	100.0	4	51	mm	100.0	244	278
Frame#	Time	r_knee			r_shank_antsup			r_ankle			r_calc			r_5meta			r_toe			L_knee			L_shank_antsup			L_ankle			L_calc			L_5meta			L_toe			r_sh2			r_sh3			r_sh4			L_sh2			L_sh3			r_thigh1			r_thigh2			r_thigh3			r_thigh4			r_thigh5			L_thigh1			L_thigh2			L_thigh3			L_thigh4			r.ASIS			r.PSIS			L.ASIS			L.PSIS			C7			R_Shoulder			L_Shoulder			R_Sternum			L_Sternum			R_humerus			R_elbow_med			R_elbow_lat			R_forearm			R_wrist_radius			R_wrist_ulna			L_humerus			L_elbow_med			L_elbow_lat			L_forearm			L_wrist_radius			L_wrist_ulna			R_HJC			L_HJC			R_HJC_reg			L_HJC_reg			
		X1	Y1	Z1	X2	Y2	Z2	X3	Y3	Z3	X4	Y4	Z4	X5	Y5	Z5	X6	Y6	Z6	X7	Y7	Z7	X8	Y8	Z8	X9	Y9	Z9	X10	Y10	Z10	X11	Y11	Z11	X12	Y12	Z12	X13	Y13	Z13	X14	Y14	Z14	X15	Y15	Z15	X16	Y16	Z16	X17	Y17	Z17	X18	Y18	Z18	X19	Y19	Z19	X20	Y20	Z20	X21	Y21	Z21	X22	Y22	Z22	X23	Y23	Z23	X24	Y24	Z24	X25	Y25	Z25	X26	Y26	Z26	X27	Y27	Z27	X28	Y28	Z28	X29	Y29	Z29	X30	Y30	Z30	X31	Y31	Z31	X32	Y32	Z32	X33	Y33	Z33	X34	Y34	Z34	X35	Y35	Z35	X36	Y36	Z36	X37	Y37	Z37	X38	Y38	Z38	X39	Y39	Z39	X40	Y40	Z40	X41	Y41	Z41	X42	Y42	Z42	X43	Y43	Z43	X44	Y44	Z44	X45	Y45	Z45	X46	Y46	Z46	X47	Y47	Z47	X48	Y48	Z48	X49	Y49	Z49	X50	Y50	Z50	X51	Y51	Z51	

244	2.43000000	-129.14187	614.94922	-302.15727	-94.18589	504.07403	-300.55300	-171.73817	231.65118	-327.16818	-206.89910	239.81282	-388.10484	-126.50548	109.50211	-291.69753	-75.26369	100.69816	-319.67041	-96.21754	649.88870	-741.28735	-46.95052	543.34341	-728.93950	-152.75581	273.32665	-783.60576	-188.07008	264.80135	-729.72159	-87.49764	150.41809	-820.42272	-31.00794	145.90507	-782.75223	-102.17222	390.99928	-308.32927	-162.53108	504.76528	-268.90347	-182.54638	396.86444	-290.84598	-112.11153	579.54925	-780.18649	-129.48585	463.63094	-811.08047	-56.45956	921.49853	-321.00955	-45.22602	813.85439	-311.33817	-90.29887	785.44971	-270.46956	-161.37663	910.57449	-282.43611	-145.67144	796.61996	-272.27585	-89.07872	947.76861	-698.20153	-48.09693	815.54774	-724.66164	-196.62744	923.05874	-708.40511	-155.29701	789.03661	-732.40253	-36.41297	1075.48829	-380.95761	-211.69695	1149.44011	-422.57846	-60.20050	1092.88847	-619.83762	-229.42906	1155.94741	-535.97814	-180.71880	1587.96954	-480.99688	-119.59715	1563.15738	-336.56758	-144.03746	1576.76695	-628.43354	-55.36120	1535.68676	-470.65405	-51.94510	1541.39752	-497.79444	-147.65061	1464.57158	-246.69395	-256.32652	1278.42543	-264.80827	-263.79790	1312.70018	-196.96764	-222.35119	1221.53580	-113.51827	-182.45054	1142.40253	-61.18290	-217.99144	1131.53223	-56.86658	-183.94183	1474.87314	-738.93768	-251.88570	1283.86828	-748.73664	-281.99843	1331.78597	-795.70292	-295.92579	1282.51733	-882.78484	-316.10207	1179.69106	-965.79266	-347.15179	1182.34284	-957.17962	-135.87581	1019.54584	-397.53728	-152.45152	1028.55969	-585.97322	-117.00019	1023.88857	-405.18803	-141.50845	1032.87906	-561.88991	
245	2.44000000	-124.15460	593.89644	-300.05463	-89.99897	482.80590	-298.62419	-169.88948	211.48494	-324.07212	-205.82576	219.25628	-385.35343	-125.51061	88.03733	-289.50385	-74.35973	78.98319	-317.69556	-89.85978	630.33861	-741.74109	-41.00939	523.34327	-729.42556	-150.51737	254.23415	-782.65675	-185.75973	245.54925	-728.40771	-85.49149	131.24412	-819.63378	-28.67423	127.14995	-782.33033	-99.36433	369.81374	-306.42757	-158.37315	484.09792	-266.93514	-179.48662	376.67743	-288.85056	-106.25455	559.91789	-780.09366	-125.13591	444.40567	-810.83478	-56.04071	901.38496	-319.77194	-43.39539	793.32111	-310.51129	-87.90521	764.71741	-269.21215	-160.78602	889.03269	-280.95107	-143.39400	775.30974	-270.73023	-89.46312	927.76333	-697.76832	-45.17864	796.89000	-724.90202	-196.42971	900.49003	-707.57980	-151.62355	767.60636	-732.24946	-37.49913	1054.33249	-380.06427	-213.36082	1128.19983	-421.29671	-61.99686	1071.34748	-619.01980	-230.74880	1134.72927	-534.65025	-179.74289	1566.11417	-480.16997	-117.24407	1539.57298	-335.03254	-142.98324	1553.21546	-628.58265	-54.66684	1511.97523	-470.47196	-51.32033	1518.16573	-496.58064	-144.52014	1438.49912	-246.87382	-251.82133	1252.84533	-268.24933	-258.59618	1284.85102	-199.64822	-215.72320	1190.85712	-119.70116	-175.41387	1108.92423	-71.23940	-211.06519	1098.62954	-66.24053	-182.68801	1448.73327	-737.38571	-250.97960	1257.35963	-741.82340	-280.63892	1304.18951	-790.27771	-295.36896	1252.91545	-875.72448	-316.52498	1148.31624	-955.70470	-347.59926	1151.00037	-946.82744	-137.15273	998.36262	-396.34175	-154.17347	1007.16771	-584.74706	-118.64794	1002.33315	-404.53396	-142.70563	1011.36663	-561.37413	
246	2.45000000	-119.08121	571.77449	-297.70368	-85.36727	460.95866	-296.32233	-168.32770	191.15159	-320.96329	-203.58016	199.67904	-383.27276	-125.93701	66.42008	-287.38530	-75.34684	57.76734	-317.29207	-83.40801	610.25287	-742.43869	-34.95703	502.78480	-730.34928	-148.07193	234.50387	-781.51209	-183.18712	225.36352	-727.02138	-83.20359	111.44833	-819.21049	-25.99561	107.67259	-782.58436	-95.40494	347.91170	-303.57679	-153.85908	462.64120	-264.89441	-175.31992	354.79613	-286.30462	-100.27437	539.85054	-780.40083	-120.81885	424.48125	-810.70119	-56.28976	880.37257	-318.55416	-42.06291	772.02605	-309.02682	-85.85145	743.21080	-267.66819	-160.72921	866.14948	-279.65373	-141.44294	752.84967	-269.06425	-90.28892	907.23779	-697.24999	-42.38095	777.86359	-725.24832	-196.61180	876.87580	-706.74536	-147.98563	745.55614	-732.07968	-38.93921	1031.91533	-379.12040	-215.91141	1105.17660	-420.28911	-64.13748	1048.61390	-617.96953	-232.54130	1112.31343	-533.35804	-178.61072	1543.30530	-479.41189	-114.45834	1514.98037	-333.49385	-141.14482	1528.71363	-628.74112	-54.18324	1487.41083	-469.88282	-54.96574	1489.83569	-506.05658	-140.73006	1411.38238	-247.04940	-246.66785	1226.16396	-270.67022	-252.22920	1255.85045	-201.37311	-207.28776	1159.23212	-125.14604	-166.21298	1075.02347	-80.71524	-201.86926	1065.23101	-74.84500	-180.24239	1421.54077	-735.65648	-249.77676	1230.57718	-735.03314	-278.06625	1276.19612	-785.64964	-293.72721	1222.93975	-869.51711	-315.96180	1116.77071	-946.57733	-347.02547	1119.67002	-937.52914	-138.90139	975.71151	-395.26934	-156.11029	984.49574	-583.65885	-120.69988	978.69365	-404.41646	-143.77346	988.59921	-561.30788	
247	2.46000000	-113.94041	548.92162	-295.21083	-80.59253	436.19668	-293.78115	-176.79878	171.95206	-321.51836	-211.29983	178.84061	-384.83231	-130.48139	50.55671	-287.06206	-80.21859	44.70499	-318.92587	-76.82639	589.31084	-742.96384	-28.91848	481.68953	-731.34104	-144.11012	214.09070	-780.65325	-178.71374	205.01486	-725.95536	-80.10332	91.06442	-819.51789	-22.76253	86.32469	-783.20695	-93.46068	324.12044	-301.51297	-148.68312	439.79965	-261.66468	-172.90795	332.15591	-283.31319	-94.56257	519.04503	-780.77922	-116.41437	403.67470	-810.12573	-57.56753	858.57836	-317.25039	-41.01154	750.57364	-306.88199	-84.25961	721.13813	-265.50656	-161.56473	842.26150	-278.09459	-140.01157	729.50520	-266.97791	-91.65400	886.10984	-696.69052	-39.93606	758.29795	-725.69959	-197.06157	852.31322	-705.85378	-144.51322	722.90081	-731.86326	-41.17810	1008.18743	-378.10675	-218.67925	1080.64838	-419.30191	-66.27622	1024.69468	-617.06660	-234.94139	1088.62685	-532.14059	-177.18808	1519.42515	-478.61546	-111.27628	1489.47353	-331.97527	-138.44461	1503.22973	-628.89505	-53.88460	1462.13744	-468.43968	-57.08437	1461.82566	-512.31373	-136.00523	1383.30531	-247.05492	-240.73667	1198.30709	-271.90187	-244.35997	1225.61529	-202.12025	-196.73496	1126.45668	-129.92440	-154.52907	1040.77013	-89.74127	-190.15769	1031.19001	-82.69071	-176.38397	1393.39565	-734.19010	-248.04668	1203.49716	-728.71552	-274.15450	1247.69122	-781.81759	-290.52793	1192.63127	-863.89700	-314.01185	1085.23627	-938.40429	-345.12552	1088.32939	-929.53327	-141.13551	951.63726	-394.35286	-158.26982	960.60434	-582.74182	-122.84823	953.58302	-404.18513	-145.46726	964.68114	-561.13002	
